<svg xmlns="http://www.w3.org/2000/svg" xmlns:xlink="http://www.w3.org/1999/xlink" fill="none" viewBox="0 0 323 182">
  <path fill="url(#a)" d="M9 159V25c95.235 2.066 184.224 94.458 255 110.988V159z"/>
  <path stroke="url(#b)" stroke-width="4" d="M265 135C150.838 110.111 164.676 50.793 9 23"/>
  <path stroke="#E8505B" stroke-dasharray="2 2" d="M9 89h156v68"/>
  <path stroke="#E8505B" stroke-dasharray="2 2" d="M9 37h58v120"/>
  <path fill="#2D3240" d="M39.186 176.13q-1.17 0-2.002-.351t-1.261-.923a2.2 2.2 0 0 1-.455-1.248.25.25 0 0 1 .078-.182.25.25 0 0 1 .195-.091h1.183q.142 0 .234.065.09.065.169.182.13.442.585.741.468.299 1.274.299.91 0 1.365-.299.468-.312.468-.845a.8.8 0 0 0-.234-.585q-.234-.234-.715-.403-.468-.182-1.404-.429-1.534-.364-2.249-.962-.715-.599-.715-1.716 0-.754.416-1.339.416-.598 1.183-.936.78-.338 1.807-.338 1.08 0 1.859.377.793.377 1.196.949.416.559.442 1.118a.3.3 0 0 1-.078.195.27.27 0 0 1-.195.078h-1.235q-.285 0-.39-.234-.065-.416-.507-.689-.442-.286-1.092-.286-.715 0-1.131.273-.403.273-.403.793 0 .351.208.585t.65.416q.442.17 1.287.39 1.157.26 1.833.585.69.326 1.014.819.325.494.325 1.261 0 .845-.468 1.469-.455.61-1.3.936-.832.325-1.937.325m6.493-.13a.3.3 0 0 1-.22-.091.3.3 0 0 1-.092-.221v-8.463q0-.143.079-.234a.32.32 0 0 1 .233-.091h1.17q.144 0 .235.091.09.092.09.234v3.042l2.9-3.133a.63.63 0 0 1 .507-.234h1.325q.104 0 .183.078.09.078.09.195a.2.2 0 0 1-.065.156l-3.535 3.926 3.795 4.303a.35.35 0 0 1 .052.169.27.27 0 0 1-.078.195.25.25 0 0 1-.181.078H50.8q-.272 0-.39-.104l-.13-.13-3.106-3.432v3.354a.3.3 0 0 1-.091.221.32.32 0 0 1-.235.091zm9.227 0a.3.3 0 0 1-.22-.091.3.3 0 0 1-.092-.221v-8.476q0-.143.091-.221a.3.3 0 0 1 .221-.091h1.248q.144 0 .221.091.09.078.091.221v8.476q0 .13-.09.221a.27.27 0 0 1-.222.091zm4.898 0a.3.3 0 0 1-.221-.091.3.3 0 0 1-.091-.221v-8.463q0-.143.078-.234a.32.32 0 0 1 .233-.091h1.015q.246 0 .377.221l3.717 5.772v-5.668q0-.143.078-.234a.32.32 0 0 1 .235-.091h1.118q.143 0 .233.091.092.092.092.234v8.45q0 .143-.092.234a.3.3 0 0 1-.22.091h-1.027a.43.43 0 0 1-.39-.221l-3.705-5.642v5.551a.3.3 0 0 1-.092.221.27.27 0 0 1-.22.091zm17.347.13q-1.794 0-2.782-.91-.975-.923-1.04-2.613a35 35 0 0 1-.013-1.144q0-.805.013-1.17.064-1.664 1.053-2.587.989-.936 2.769-.936 1.157 0 2.015.403.858.39 1.326 1.079.48.689.507 1.547v.026q0 .104-.091.182a.28.28 0 0 1-.182.065h-1.261q-.156 0-.234-.065a.6.6 0 0 1-.13-.26q-.195-.805-.676-1.131-.48-.338-1.274-.338-1.86 0-1.937 2.08-.013.351-.013 1.079t.013 1.105q.078 2.08 1.937 2.08.78 0 1.261-.325.494-.338.689-1.144.052-.182.13-.247.078-.078.234-.078h1.261q.117 0 .195.078.09.078.078.195a2.8 2.8 0 0 1-.507 1.547q-.468.689-1.326 1.092-.858.39-2.015.39m9.9 0q-1.782 0-2.77-.897-.987-.897-1.04-2.665-.013-.377-.013-1.105 0-.741.013-1.118.052-1.73 1.066-2.652t2.743-.923q1.716 0 2.73.923 1.028.923 1.08 2.652.025.754.025 1.118 0 .35-.026 1.105-.051 1.768-1.053 2.665-.987.897-2.756.897m0-1.508q.87 0 1.377-.52t.546-1.599q.026-.78.026-1.053 0-.299-.026-1.053-.039-1.066-.559-1.586-.519-.533-1.365-.533-.858 0-1.378.533-.519.52-.546 1.586a32 32 0 0 0-.013 1.053q0 .663.013 1.053.026 1.067.533 1.599.52.52 1.391.52M93.89 176a.3.3 0 0 1-.22-.091.3.3 0 0 1-.092-.221v-8.463q0-.143.078-.234a.32.32 0 0 1 .234-.091h1.014q.247 0 .377.221L99 172.893v-5.668q0-.143.078-.234a.32.32 0 0 1 .234-.091h1.118q.144 0 .234.091a.32.32 0 0 1 .091.234v8.45q0 .143-.091.234a.3.3 0 0 1-.221.091h-1.027a.43.43 0 0 1-.39-.221l-3.705-5.642v5.551a.3.3 0 0 1-.09.221.27.27 0 0 1-.222.091zm10.192 0a.3.3 0 0 1-.221-.091.3.3 0 0 1-.091-.221v-8.463q0-.143.078-.234a.32.32 0 0 1 .234-.091h3.172q3.835 0 3.913 3.536.026.754.026 1.014 0 .247-.026 1.001-.052 1.82-.988 2.691-.923.858-2.86.858zm3.172-1.508q1.078 0 1.56-.481.481-.482.507-1.599.026-.78.026-.975 0-.208-.026-.962-.026-1.067-.533-1.56-.507-.507-1.599-.507h-1.586v6.084zm6.968 1.508a.3.3 0 0 1-.221-.091.3.3 0 0 1-.091-.221v-8.476q0-.143.091-.221a.3.3 0 0 1 .221-.091h1.248q.144 0 .221.091a.28.28 0 0 1 .091.221v8.476a.3.3 0 0 1-.091.221q-.078.091-.221.091zm6.9 0a.3.3 0 0 1-.221-.091.3.3 0 0 1-.091-.221v-7.163h-2.405a.3.3 0 0 1-.221-.091.32.32 0 0 1-.091-.234v-.975q0-.143.078-.234a.32.32 0 0 1 .234-.091h6.643q.143 0 .234.091a.32.32 0 0 1 .091.234v.975q0 .142-.091.234a.32.32 0 0 1-.234.091h-2.392v7.163a.3.3 0 0 1-.091.221.28.28 0 0 1-.221.091zm6.882 0a.3.3 0 0 1-.221-.091.3.3 0 0 1-.091-.221v-8.476q0-.143.091-.221a.3.3 0 0 1 .221-.091h1.248q.143 0 .221.091.09.078.091.221v8.476q0 .13-.091.221a.28.28 0 0 1-.221.091zm8.095.13q-1.78 0-2.769-.897-.987-.897-1.04-2.665-.013-.377-.013-1.105 0-.741.013-1.118.052-1.73 1.066-2.652t2.743-.923q1.716 0 2.73.923 1.028.923 1.079 2.652.026.754.026 1.118 0 .35-.026 1.105-.051 1.768-1.053 2.665-.987.897-2.756.897m0-1.508q.871 0 1.378-.52t.546-1.599q.026-.78.026-1.053 0-.299-.026-1.053-.039-1.066-.559-1.586-.519-.533-1.365-.533-.858 0-1.378.533-.519.52-.546 1.586-.013.376-.013 1.053 0 .663.013 1.053.026 1.067.533 1.599.52.52 1.391.52M142.94 176a.3.3 0 0 1-.221-.091.3.3 0 0 1-.091-.221v-8.463q0-.143.078-.234a.32.32 0 0 1 .234-.091h1.014q.248 0 .377.221l3.718 5.772v-5.668q0-.143.078-.234a.32.32 0 0 1 .234-.091h1.118q.144 0 .234.091a.32.32 0 0 1 .091.234v8.45q0 .143-.091.234a.3.3 0 0 1-.221.091h-1.027a.43.43 0 0 1-.39-.221l-3.705-5.642v5.551a.3.3 0 0 1-.091.221q-.077.091-.221.091zm15.18 0q-.376 0-.468-.39l-1.534-8.333-.013-.104a.265.265 0 0 1 .273-.273h1.17q.17 0 .247.065.078.052.104.195l1.079 5.85 1.157-3.77q.13-.325.429-.325h.715a.37.37 0 0 1 .273.104q.104.091.143.221l1.17 3.77 1.066-5.85q.04-.26.364-.26h1.17q.104 0 .182.078a.27.27 0 0 1 .078.195.3.3 0 0 1-.013.104l-1.534 8.333a.43.43 0 0 1-.156.286.45.45 0 0 1-.312.104h-.884a.47.47 0 0 1-.299-.091.5.5 0 0 1-.156-.234l-1.456-4.316-1.456 4.316q-.104.325-.455.325zm13.527.13q-1.78 0-2.769-.897-.988-.897-1.04-2.665-.013-.377-.013-1.105 0-.741.013-1.118.052-1.73 1.066-2.652t2.743-.923q1.716 0 2.73.923 1.027.923 1.079 2.652.026.754.026 1.118 0 .35-.026 1.105-.053 1.768-1.053 2.665-.988.897-2.756.897m0-1.508q.871 0 1.378-.52t.546-1.599q.026-.78.026-1.053 0-.299-.026-1.053-.039-1.066-.559-1.586-.52-.533-1.365-.533-.858 0-1.378.533-.52.52-.546 1.586-.013.376-.013 1.053 0 .663.013 1.053.026 1.067.533 1.599.52.52 1.391.52m6.841 1.378a.3.3 0 0 1-.221-.091.3.3 0 0 1-.091-.221v-8.463q0-.143.078-.234a.32.32 0 0 1 .234-.091h3.367q1.599 0 2.496.741.91.741.91 2.106 0 .95-.455 1.599-.455.637-1.274.923l1.885 3.315q.039.078.039.143 0 .117-.091.195a.25.25 0 0 1-.182.078h-1.196a.5.5 0 0 1-.325-.091 1 1 0 0 1-.208-.26l-1.664-3.081h-1.781v3.12a.3.3 0 0 1-.091.221.32.32 0 0 1-.234.091zm3.328-4.914q.78 0 1.17-.338.39-.351.39-1.014t-.39-1.014q-.39-.364-1.17-.364h-1.807v2.73zm9.292 5.044q-1.17 0-2.002-.351t-1.261-.923a2.2 2.2 0 0 1-.455-1.248.25.25 0 0 1 .078-.182.25.25 0 0 1 .195-.091h1.183q.143 0 .234.065a.7.7 0 0 1 .169.182q.13.442.585.741.468.299 1.274.299.91 0 1.365-.299.468-.312.468-.845a.8.8 0 0 0-.234-.585q-.234-.234-.715-.403-.468-.182-1.404-.429-1.534-.364-2.249-.962-.715-.599-.715-1.716 0-.754.416-1.339.416-.598 1.183-.936.78-.338 1.807-.338 1.079 0 1.859.377.793.377 1.196.949.416.559.442 1.118a.3.3 0 0 1-.078.195.27.27 0 0 1-.195.078h-1.235q-.286 0-.39-.234-.065-.416-.507-.689-.442-.286-1.092-.286-.716 0-1.131.273-.403.273-.403.793 0 .351.208.585t.65.416q.442.17 1.287.39 1.156.26 1.833.585.689.326 1.014.819.325.494.325 1.261 0 .845-.468 1.469-.455.61-1.3.936-.832.325-1.937.325m6.493-.13a.3.3 0 0 1-.221-.091.3.3 0 0 1-.091-.221v-8.463q0-.143.078-.234a.32.32 0 0 1 .234-.091h5.733q.144 0 .234.091a.32.32 0 0 1 .091.234v.871q0 .142-.091.234a.34.34 0 0 1-.234.078h-4.264v2.275h3.978q.144 0 .234.091a.32.32 0 0 1 .091.234v.819q0 .142-.091.234a.34.34 0 0 1-.234.078h-3.978v2.353h4.368q.144 0 .234.091a.28.28 0 0 1 .091.221v.884q0 .142-.091.234a.34.34 0 0 1-.234.078zm9.1 0a.3.3 0 0 1-.221-.091.3.3 0 0 1-.091-.221v-8.463q0-.143.078-.234a.32.32 0 0 1 .234-.091h1.014q.247 0 .377.221l3.718 5.772v-5.668q0-.143.078-.234a.32.32 0 0 1 .234-.091h1.118q.143 0 .234.091a.32.32 0 0 1 .091.234v8.45q0 .143-.091.234a.3.3 0 0 1-.221.091h-1.027a.43.43 0 0 1-.39-.221l-3.705-5.642v5.551a.3.3 0 0 1-.091.221.28.28 0 0 1-.221.091zm10.191 0a.3.3 0 0 1-.221-.091.3.3 0 0 1-.091-.221v-8.476q0-.143.091-.221a.3.3 0 0 1 .221-.091h1.248q.144 0 .221.091a.28.28 0 0 1 .091.221v8.476a.3.3 0 0 1-.091.221q-.077.091-.221.091zm4.898 0a.3.3 0 0 1-.221-.091.3.3 0 0 1-.091-.221v-8.463q0-.143.078-.234a.32.32 0 0 1 .234-.091h1.014q.247 0 .377.221l3.718 5.772v-5.668q0-.143.078-.234a.32.32 0 0 1 .234-.091h1.118q.143 0 .234.091a.32.32 0 0 1 .091.234v8.45q0 .143-.091.234a.3.3 0 0 1-.221.091h-1.027a.43.43 0 0 1-.39-.221l-3.705-5.642v5.551a.3.3 0 0 1-.091.221.28.28 0 0 1-.221.091zm13.428.13q-1.793 0-2.795-.923-.987-.923-1.053-2.574a42 42 0 0 1-.013-1.209q0-.833.013-1.209.052-1.612 1.066-2.522 1.014-.923 2.782-.923 1.196 0 2.054.416.872.403 1.313 1.014.442.598.468 1.183a.27.27 0 0 1-.078.195.28.28 0 0 1-.208.078h-1.365q-.129 0-.195-.052a.45.45 0 0 1-.117-.169 1.8 1.8 0 0 0-.637-.819q-.455-.338-1.235-.338-.91 0-1.43.494-.506.481-.533 1.508-.013.377-.013 1.144 0 .754.013 1.144.027 1.053.546 1.56.52.494 1.43.494.924 0 1.482-.494.56-.493.559-1.482v-.403h-1.586a.3.3 0 0 1-.221-.091.3.3 0 0 1-.091-.221v-.715q0-.13.091-.221a.3.3 0 0 1 .221-.091h3.12a.313.313 0 0 1 .325.312v1.378q0 1.079-.481 1.885-.48.793-1.365 1.222-.883.429-2.067.429"/>
  <path fill="#C4C4C4" d="M292.53 161.53a.75.75 0 0 0 0-1.06l-4.773-4.773a.749.749 0 1 0-1.06 1.06l4.242 4.243-4.242 4.243a.749.749 0 1 0 1.06 1.06zM24 161v.75h268v-1.5H24zM6.53.47a.75.75 0 0 0-1.06 0L.697 5.243a.75.75 0 0 0 1.06 1.06L6 2.061l4.243 4.242a.75.75 0 0 0 1.06-1.06zM6 144h.75V1h-1.5v143z"/>
  <path fill="#D89490" d="M4 152h12v12H4z"/>
  <g filter="url(#c)">
    <path stroke="url(#d)" stroke-width="2" d="M265 135c-106.135-21.111-93.27-71.426-238-95"/>
  </g>
  <circle cx="67" cy="37" r="20" fill="#E8505B" opacity=".2"/>
  <circle cx="67" cy="37" r="8" fill="#E8505B"/>
  <circle cx="165" cy="89" r="20" fill="#E8505B" opacity=".2"/>
  <circle cx="165" cy="89" r="8" fill="#E8505B"/>
  <rect width="168" height="25" x="155" y="125" fill="#E8505B" rx="4"/>
  <path fill="#fff" d="M160.72 142a.3.3 0 0 1-.221-.091.3.3 0 0 1-.091-.221v-8.463q0-.143.091-.234a.3.3 0 0 1 .221-.091h1.001q.182 0 .26.091a1 1 0 0 1 .117.117l3.744 5.824v-5.707q0-.143.078-.234a.3.3 0 0 1 .234-.091h1.092q.143 0 .234.091a.32.32 0 0 1 .091.234v8.45a.32.32 0 0 1-.091.234.3.3 0 0 1-.221.091h-1.014q-.183 0-.26-.091a.7.7 0 0 0-.117-.117l-3.731-5.694v5.59q0 .13-.091.221a.32.32 0 0 1-.234.091zm13.376.13q-1.156 0-1.989-.377a2.9 2.9 0 0 1-1.3-1.183q-.468-.806-.507-2.002a46 46 0 0 1 0-2.223q.039-1.183.52-1.976a3.07 3.07 0 0 1 1.313-1.196q.845-.403 1.963-.403t1.963.403a3.06 3.06 0 0 1 1.326 1.196q.481.793.52 1.976.026.572.026 1.118t-.026 1.105q-.039 1.196-.507 2.002a2.9 2.9 0 0 1-1.313 1.183q-.832.377-1.989.377m0-1.495q.845 0 1.378-.494.533-.507.572-1.638.026-.571.026-1.053 0-.494-.026-1.053-.026-.754-.286-1.222a1.5 1.5 0 0 0-.676-.689 2.1 2.1 0 0 0-.988-.221q-.546 0-.975.221a1.55 1.55 0 0 0-.689.689q-.248.468-.273 1.222a44 44 0 0 0 0 2.106q.04 1.131.572 1.638.532.494 1.365.494m8.691 1.365a.3.3 0 0 1-.221-.091.3.3 0 0 1-.091-.221v-7.189h-2.405a.3.3 0 0 1-.221-.091.3.3 0 0 1-.091-.221v-.962q0-.143.091-.234a.3.3 0 0 1 .221-.091h6.63q.142 0 .234.091a.32.32 0 0 1 .091.234v.962a.3.3 0 0 1-.091.221.32.32 0 0 1-.234.091h-2.392v7.189a.3.3 0 0 1-.091.221.32.32 0 0 1-.234.091zm13.837.13q-1.13 0-1.963-.377a2.84 2.84 0 0 1-1.287-1.183q-.455-.806-.455-2.054v-5.291a.32.32 0 0 1 .091-.234.3.3 0 0 1 .221-.091h1.183q.144 0 .221.091a.32.32 0 0 1 .091.234v5.291q0 1.066.507 1.586.507.507 1.391.507.885 0 1.378-.507.507-.52.507-1.586v-5.291a.32.32 0 0 1 .091-.234.32.32 0 0 1 .234-.091h1.17q.143 0 .221.091a.32.32 0 0 1 .091.234v5.291q0 1.248-.455 2.054a2.76 2.76 0 0 1-1.274 1.183q-.819.377-1.963.377m9.8 0q-1.209 0-2.028-.351-.806-.365-1.235-.936-.416-.585-.442-1.222a.265.265 0 0 1 .273-.273h1.157q.17 0 .247.078.091.065.156.169.078.247.299.494.221.234.598.39.39.156.975.156.936 0 1.391-.312.468-.312.468-.845 0-.377-.247-.598-.247-.234-.767-.416-.507-.195-1.352-.403-.975-.234-1.638-.559-.65-.338-.988-.845-.325-.507-.325-1.287a2.3 2.3 0 0 1 .403-1.339q.415-.585 1.17-.923.767-.338 1.82-.338.845 0 1.495.234a3.2 3.2 0 0 1 1.079.598q.43.364.65.793.234.415.247.819a.3.3 0 0 1-.078.195q-.065.078-.195.078h-1.209a.46.46 0 0 1-.208-.052.4.4 0 0 1-.169-.195q-.078-.403-.507-.689t-1.105-.286q-.702 0-1.131.26t-.429.806q0 .364.208.611.22.234.689.416.481.181 1.261.39 1.105.247 1.807.572t1.027.832q.325.494.325 1.261 0 .858-.468 1.469-.454.598-1.287.923-.832.325-1.937.325m6.494-.13a.3.3 0 0 1-.221-.091.3.3 0 0 1-.091-.221v-8.476a.3.3 0 0 1 .091-.221.3.3 0 0 1 .221-.091h1.222q.143 0 .221.091.09.091.091.221v8.476q0 .13-.091.221a.28.28 0 0 1-.221.091zm4.885 0a.3.3 0 0 1-.221-.091.3.3 0 0 1-.091-.221v-8.463q0-.143.091-.234a.3.3 0 0 1 .221-.091h1.001q.182 0 .26.091a1 1 0 0 1 .117.117l3.744 5.824v-5.707q0-.143.078-.234a.3.3 0 0 1 .234-.091h1.092q.143 0 .234.091a.32.32 0 0 1 .091.234v8.45a.32.32 0 0 1-.091.234.3.3 0 0 1-.221.091h-1.014q-.183 0-.26-.091a.7.7 0 0 0-.117-.117l-3.731-5.694v5.59q0 .13-.091.221a.32.32 0 0 1-.234.091zm13.415.13q-1.196 0-2.041-.416a3.1 3.1 0 0 1-1.3-1.196q-.455-.793-.494-1.885a52 52 0 0 1 0-2.418q.04-1.079.494-1.846a3.1 3.1 0 0 1 1.313-1.183q.858-.416 2.028-.416.949 0 1.664.26.715.247 1.183.65.481.39.715.845.247.455.26.845a.23.23 0 0 1-.065.195.28.28 0 0 1-.208.078h-1.339q-.13 0-.195-.052a.5.5 0 0 1-.117-.156 1.8 1.8 0 0 0-.325-.533 1.7 1.7 0 0 0-.598-.455q-.376-.182-.975-.182-.884 0-1.417.468-.52.468-.559 1.547a34 34 0 0 0 0 2.288q.04 1.105.572 1.586.546.481 1.43.481.585 0 1.04-.208.468-.208.728-.65.273-.442.273-1.131v-.403h-1.586a.3.3 0 0 1-.221-.091.32.32 0 0 1-.091-.234v-.689q0-.143.091-.234a.3.3 0 0 1 .221-.091h3.107q.143 0 .221.091a.32.32 0 0 1 .091.234v1.365q0 1.092-.481 1.885a3.1 3.1 0 0 1-1.352 1.222q-.871.429-2.067.429m10.849-.13a.3.3 0 0 1-.221-.091.3.3 0 0 1-.091-.221v-8.463a.32.32 0 0 1 .091-.234.3.3 0 0 1 .221-.091h5.642q.144 0 .234.091a.32.32 0 0 1 .091.234v.91q0 .142-.091.234a.34.34 0 0 1-.234.078h-4.173v2.47h3.913q.144 0 .234.091a.32.32 0 0 1 .091.234v.91a.313.313 0 0 1-.325.312h-3.913v3.224a.313.313 0 0 1-.325.312zm7.404 0a.3.3 0 0 1-.195-.078.27.27 0 0 1-.078-.195q0-.053.026-.117l3.133-8.385a.46.46 0 0 1 .143-.221.45.45 0 0 1 .312-.104h1.417q.194 0 .299.104a.6.6 0 0 1 .156.221l3.133 8.385a1 1 0 0 1 .013.117.27.27 0 0 1-.078.195.25.25 0 0 1-.182.078h-1.131q-.183 0-.273-.078a.5.5 0 0 1-.104-.169l-.611-1.586h-3.861l-.611 1.586a.5.5 0 0 1-.117.169q-.078.078-.26.078zm2.574-3.328h2.951l-1.482-4.017zm11.331 3.458q-1.21 0-2.054-.416a3 3 0 0 1-1.274-1.209q-.443-.793-.494-1.898a49 49 0 0 1 0-2.314q.051-1.092.494-1.885a3 3 0 0 1 1.287-1.209q.844-.429 2.041-.429.884 0 1.586.234t1.196.65q.494.403.767.949t.286 1.183a.22.22 0 0 1-.078.195.27.27 0 0 1-.195.078h-1.235a.4.4 0 0 1-.234-.065.44.44 0 0 1-.13-.247q-.208-.858-.715-1.17-.508-.312-1.261-.312-.872 0-1.391.494-.52.482-.559 1.599a31 31 0 0 0 0 2.184q.039 1.118.559 1.612.52.481 1.391.481.753 0 1.261-.312.507-.326.715-1.17.039-.182.13-.247a.4.4 0 0 1 .234-.065h1.235q.117 0 .195.078.09.078.078.195a2.74 2.74 0 0 1-.286 1.183 3 3 0 0 1-.767.962q-.495.403-1.196.637a5 5 0 0 1-1.586.234m6.688-.13a.3.3 0 0 1-.221-.091.3.3 0 0 1-.091-.221v-8.463a.32.32 0 0 1 .091-.234.3.3 0 0 1 .221-.091h5.72q.144 0 .234.091a.32.32 0 0 1 .091.234v.858a.313.313 0 0 1-.325.312h-4.277v2.301h3.991q.144 0 .234.091a.28.28 0 0 1 .091.221v.806q0 .143-.091.234a.34.34 0 0 1-.234.078h-3.991v2.379h4.381q.144 0 .234.091a.32.32 0 0 1 .091.234v.858a.313.313 0 0 1-.325.312zm15.069 0a.3.3 0 0 1-.221-.091.3.3 0 0 1-.091-.221v-2.938l-3.068-5.434-.026-.065a.27.27 0 0 1 .065-.273.25.25 0 0 1 .182-.078h1.157q.156 0 .247.078a.43.43 0 0 1 .143.169l2.21 3.783 2.197-3.783a.6.6 0 0 1 .143-.169.42.42 0 0 1 .26-.078h1.144a.265.265 0 0 1 .273.273.2.2 0 0 1-.013.078.1.1 0 0 1-.026.065l-3.068 5.434v2.938a.3.3 0 0 1-.091.221.32.32 0 0 1-.234.091zm10.02.13q-1.158 0-1.989-.377a2.9 2.9 0 0 1-1.3-1.183q-.468-.806-.507-2.002a46 46 0 0 1 0-2.223q.039-1.183.52-1.976.48-.793 1.313-1.196.844-.403 1.963-.403 1.117 0 1.963.403a3.06 3.06 0 0 1 1.326 1.196q.48.793.52 1.976.026.572.026 1.118t-.026 1.105q-.039 1.196-.507 2.002a2.9 2.9 0 0 1-1.313 1.183q-.833.377-1.989.377m0-1.495q.844 0 1.378-.494.533-.507.572-1.638.026-.571.026-1.053 0-.494-.026-1.053-.027-.754-.286-1.222a1.5 1.5 0 0 0-.676-.689 2.1 2.1 0 0 0-.988-.221q-.546 0-.975.221a1.55 1.55 0 0 0-.689.689q-.247.468-.273 1.222a44 44 0 0 0 0 2.106q.038 1.131.572 1.638.533.494 1.365.494m10.078 1.495q-1.197 0-2.041-.416a3.1 3.1 0 0 1-1.3-1.196q-.456-.793-.494-1.885a52 52 0 0 1 0-2.418q.038-1.079.494-1.846a3.1 3.1 0 0 1 1.313-1.183q.858-.416 2.028-.416.948 0 1.664.26.714.247 1.183.65.48.39.715.845.246.455.26.845a.23.23 0 0 1-.065.195.28.28 0 0 1-.208.078h-1.339q-.13 0-.195-.052a.45.45 0 0 1-.117-.156 1.9 1.9 0 0 0-.325-.533 1.7 1.7 0 0 0-.598-.455q-.378-.182-.975-.182-.885 0-1.417.468-.52.468-.559 1.547a34 34 0 0 0 0 2.288q.038 1.105.572 1.586.545.481 1.43.481.584 0 1.04-.208.467-.208.728-.65.273-.442.273-1.131v-.403h-1.586a.3.3 0 0 1-.221-.091.32.32 0 0 1-.091-.234v-.689q0-.143.091-.234a.3.3 0 0 1 .221-.091h3.107q.143 0 .221.091a.32.32 0 0 1 .091.234v1.365q0 1.092-.481 1.885a3.1 3.1 0 0 1-1.352 1.222q-.871.429-2.067.429m5.817-.13a.3.3 0 0 1-.195-.078.27.27 0 0 1-.078-.195q0-.053.026-.117l3.133-8.385a.46.46 0 0 1 .143-.221.45.45 0 0 1 .312-.104h1.417q.195 0 .299.104a.6.6 0 0 1 .156.221l3.133 8.385a1 1 0 0 1 .013.117.27.27 0 0 1-.078.195.25.25 0 0 1-.182.078h-1.131q-.183 0-.273-.078a.5.5 0 0 1-.104-.169l-.611-1.586h-3.861l-.611 1.586a.5.5 0 0 1-.117.169q-.078.078-.26.078zm2.574-3.328h2.951l-1.482-4.017z"/>
  <defs>
    <linearGradient id="a" x1="136.5" x2="51.481" y1="194.016" y2="3.933" gradientUnits="userSpaceOnUse">
      <stop stop-color="#fff"/>
      <stop offset="1" stop-color="#FFCBBF"/>
    </linearGradient>
    <linearGradient id="b" x1="137" x2="-113.292" y1="398.531" y2="142.595" gradientUnits="userSpaceOnUse">
      <stop stop-color="#E39582"/>
      <stop offset="1" stop-color="#BE91AB"/>
    </linearGradient>
    <linearGradient id="d" x1="146" x2="-64.981" y1="358.531" y2="122.069" gradientUnits="userSpaceOnUse">
      <stop stop-color="#E39582"/>
      <stop offset="1" stop-color="#BE91AB"/>
    </linearGradient>
    <filter id="c" width="250.356" height="108.968" x="20.839" y="33.013" color-interpolation-filters="sRGB" filterUnits="userSpaceOnUse">
      <feFlood flood-opacity="0" result="BackgroundImageFix"/>
      <feBlend in="SourceGraphic" in2="BackgroundImageFix" mode="normal" result="shape"/>
      <feGaussianBlur result="effect1_foregroundBlur_33177_17356" stdDeviation="3"/>
    </filter>
  </defs>
</svg>
